<mxfile host="Electron" modified="2024-03-02T16:11:42.140Z" agent="Mozilla/5.0 (Windows NT 10.0; Win64; x64) AppleWebKit/537.36 (KHTML, like Gecko) draw.io/22.1.2 Chrome/114.0.5735.289 Electron/25.9.4 Safari/537.36" etag="qk9Wmmq6Nd72JGs-UAb3" version="22.1.2" type="device">
  <diagram name="Страница — 1" id="E-rUWJMHfNGmUJ-DfUY2">
    <mxGraphModel dx="2899" dy="1228" grid="1" gridSize="10" guides="1" tooltips="1" connect="1" arrows="1" fold="1" page="1" pageScale="1" pageWidth="827" pageHeight="1169" math="0" shadow="0">
      <root>
        <mxCell id="0" />
        <mxCell id="1" parent="0" />
        <mxCell id="c3LXQ4Qde72yaz5A5wlV-2" style="edgeStyle=orthogonalEdgeStyle;rounded=0;orthogonalLoop=1;jettySize=auto;html=1;exitX=0.5;exitY=1;exitDx=0;exitDy=0;fontFamily=Times New Roman;fontSize=24;fontColor=default;" edge="1" parent="1" source="c3LXQ4Qde72yaz5A5wlV-1">
          <mxGeometry relative="1" as="geometry">
            <mxPoint x="360" y="200" as="targetPoint" />
          </mxGeometry>
        </mxCell>
        <mxCell id="c3LXQ4Qde72yaz5A5wlV-1" value="начало" style="ellipse;whiteSpace=wrap;html=1;fontFamily=Times New Roman;fontSize=24;" vertex="1" parent="1">
          <mxGeometry x="300" y="40" width="120" height="80" as="geometry" />
        </mxCell>
        <mxCell id="c3LXQ4Qde72yaz5A5wlV-18" style="edgeStyle=orthogonalEdgeStyle;rounded=0;orthogonalLoop=1;jettySize=auto;html=1;exitX=0.5;exitY=1;exitDx=0;exitDy=0;fontFamily=Times New Roman;fontSize=24;fontColor=default;" edge="1" parent="1" source="c3LXQ4Qde72yaz5A5wlV-5">
          <mxGeometry relative="1" as="geometry">
            <mxPoint x="360" y="360" as="targetPoint" />
          </mxGeometry>
        </mxCell>
        <mxCell id="c3LXQ4Qde72yaz5A5wlV-5" value="int main(){" style="ellipse;whiteSpace=wrap;html=1;strokeColor=default;align=center;verticalAlign=middle;fontFamily=Times New Roman;fontSize=24;fontColor=default;fillColor=default;" vertex="1" parent="1">
          <mxGeometry x="300" y="200" width="120" height="80" as="geometry" />
        </mxCell>
        <mxCell id="c3LXQ4Qde72yaz5A5wlV-7" value="" style="endArrow=none;html=1;rounded=0;fontFamily=Times New Roman;fontSize=24;fontColor=default;" edge="1" parent="1">
          <mxGeometry width="50" height="50" relative="1" as="geometry">
            <mxPoint x="360" y="160" as="sourcePoint" />
            <mxPoint x="520" y="160" as="targetPoint" />
          </mxGeometry>
        </mxCell>
        <mxCell id="c3LXQ4Qde72yaz5A5wlV-8" value="" style="endArrow=none;html=1;rounded=0;fontFamily=Times New Roman;fontSize=24;fontColor=default;" edge="1" parent="1">
          <mxGeometry width="50" height="50" relative="1" as="geometry">
            <mxPoint x="520" y="320" as="sourcePoint" />
            <mxPoint x="520" y="80" as="targetPoint" />
          </mxGeometry>
        </mxCell>
        <mxCell id="c3LXQ4Qde72yaz5A5wlV-9" value="" style="endArrow=none;html=1;rounded=0;fontFamily=Times New Roman;fontSize=24;fontColor=default;" edge="1" parent="1">
          <mxGeometry width="50" height="50" relative="1" as="geometry">
            <mxPoint x="520" y="320" as="sourcePoint" />
            <mxPoint x="560" y="320" as="targetPoint" />
          </mxGeometry>
        </mxCell>
        <mxCell id="c3LXQ4Qde72yaz5A5wlV-10" value="" style="endArrow=none;html=1;rounded=0;fontFamily=Times New Roman;fontSize=24;fontColor=default;" edge="1" parent="1">
          <mxGeometry width="50" height="50" relative="1" as="geometry">
            <mxPoint x="520" y="79.5" as="sourcePoint" />
            <mxPoint x="560" y="79.5" as="targetPoint" />
          </mxGeometry>
        </mxCell>
        <mxCell id="c3LXQ4Qde72yaz5A5wlV-11" value="#include &amp;lt;iostream&amp;gt;" style="text;html=1;align=left;verticalAlign=middle;resizable=0;points=[];autosize=1;strokeColor=none;fillColor=none;fontSize=24;fontFamily=Times New Roman;fontColor=default;" vertex="1" parent="1">
          <mxGeometry x="530" y="80" width="220" height="40" as="geometry" />
        </mxCell>
        <mxCell id="c3LXQ4Qde72yaz5A5wlV-12" value="#include &amp;lt;string&amp;gt;" style="text;html=1;align=left;verticalAlign=middle;resizable=0;points=[];autosize=1;strokeColor=none;fillColor=none;fontSize=24;fontFamily=Times New Roman;fontColor=default;" vertex="1" parent="1">
          <mxGeometry x="530" y="110" width="190" height="40" as="geometry" />
        </mxCell>
        <mxCell id="c3LXQ4Qde72yaz5A5wlV-13" value="std::vector &amp;lt;int&amp;gt; a;" style="text;html=1;align=left;verticalAlign=middle;resizable=0;points=[];autosize=1;strokeColor=none;fillColor=none;fontSize=24;fontFamily=Times New Roman;fontColor=default;" vertex="1" parent="1">
          <mxGeometry x="530" y="140" width="210" height="40" as="geometry" />
        </mxCell>
        <mxCell id="c3LXQ4Qde72yaz5A5wlV-14" value="int count = 1;&amp;nbsp;" style="text;html=1;align=left;verticalAlign=middle;resizable=0;points=[];autosize=1;strokeColor=none;fillColor=none;fontSize=24;fontFamily=Times New Roman;fontColor=default;" vertex="1" parent="1">
          <mxGeometry x="530" y="173" width="160" height="40" as="geometry" />
        </mxCell>
        <mxCell id="c3LXQ4Qde72yaz5A5wlV-15" value="setlocale(LC_ALL, &quot;Ru&quot;);" style="text;html=1;align=left;verticalAlign=middle;resizable=0;points=[];autosize=1;strokeColor=none;fillColor=none;fontSize=24;fontFamily=Times New Roman;fontColor=default;" vertex="1" parent="1">
          <mxGeometry x="530" y="200" width="280" height="40" as="geometry" />
        </mxCell>
        <mxCell id="c3LXQ4Qde72yaz5A5wlV-16" value="std::system(&quot;chcp 1251&quot;);" style="text;html=1;align=left;verticalAlign=middle;resizable=0;points=[];autosize=1;strokeColor=none;fillColor=none;fontSize=24;fontFamily=Times New Roman;fontColor=default;" vertex="1" parent="1">
          <mxGeometry x="530" y="230" width="270" height="40" as="geometry" />
        </mxCell>
        <mxCell id="c3LXQ4Qde72yaz5A5wlV-17" value="std::string s;" style="text;html=1;align=left;verticalAlign=middle;resizable=0;points=[];autosize=1;strokeColor=none;fillColor=none;fontSize=24;fontFamily=Times New Roman;fontColor=default;" vertex="1" parent="1">
          <mxGeometry x="530" y="260" width="140" height="40" as="geometry" />
        </mxCell>
        <mxCell id="c3LXQ4Qde72yaz5A5wlV-20" style="edgeStyle=orthogonalEdgeStyle;rounded=0;orthogonalLoop=1;jettySize=auto;html=1;exitX=0.5;exitY=1;exitDx=0;exitDy=0;fontFamily=Times New Roman;fontSize=24;fontColor=default;" edge="1" parent="1" source="c3LXQ4Qde72yaz5A5wlV-19">
          <mxGeometry relative="1" as="geometry">
            <mxPoint x="360" y="480" as="targetPoint" />
          </mxGeometry>
        </mxCell>
        <mxCell id="c3LXQ4Qde72yaz5A5wlV-19" value="std::cout &amp;lt;&amp;lt; &quot;Введите первое и второе слово через нижнее подчёркивание: &quot;;" style="shape=parallelogram;perimeter=parallelogramPerimeter;whiteSpace=wrap;html=1;fixedSize=1;strokeColor=default;align=center;verticalAlign=middle;fontFamily=Times New Roman;fontSize=24;fontColor=default;fillColor=default;" vertex="1" parent="1">
          <mxGeometry x="110" y="360" width="500" height="60" as="geometry" />
        </mxCell>
        <mxCell id="c3LXQ4Qde72yaz5A5wlV-22" style="edgeStyle=orthogonalEdgeStyle;rounded=0;orthogonalLoop=1;jettySize=auto;html=1;exitX=0.5;exitY=1;exitDx=0;exitDy=0;fontFamily=Times New Roman;fontSize=24;fontColor=default;" edge="1" parent="1" source="c3LXQ4Qde72yaz5A5wlV-21">
          <mxGeometry relative="1" as="geometry">
            <mxPoint x="360" y="600" as="targetPoint" />
          </mxGeometry>
        </mxCell>
        <mxCell id="c3LXQ4Qde72yaz5A5wlV-21" value="std::getline(std::cin, s);" style="whiteSpace=wrap;html=1;strokeColor=default;align=center;verticalAlign=middle;fontFamily=Times New Roman;fontSize=24;fontColor=default;fillColor=default;" vertex="1" parent="1">
          <mxGeometry x="230" y="480" width="260" height="60" as="geometry" />
        </mxCell>
        <mxCell id="c3LXQ4Qde72yaz5A5wlV-24" style="edgeStyle=orthogonalEdgeStyle;rounded=0;orthogonalLoop=1;jettySize=auto;html=1;exitX=0.5;exitY=1;exitDx=0;exitDy=0;fontFamily=Times New Roman;fontSize=24;fontColor=default;" edge="1" parent="1" source="c3LXQ4Qde72yaz5A5wlV-23">
          <mxGeometry relative="1" as="geometry">
            <mxPoint x="360" y="760" as="targetPoint" />
          </mxGeometry>
        </mxCell>
        <mxCell id="c3LXQ4Qde72yaz5A5wlV-40" style="edgeStyle=orthogonalEdgeStyle;rounded=0;orthogonalLoop=1;jettySize=auto;html=1;exitX=1;exitY=0.5;exitDx=0;exitDy=0;fontFamily=Times New Roman;fontSize=24;fontColor=default;" edge="1" parent="1" source="c3LXQ4Qde72yaz5A5wlV-23">
          <mxGeometry relative="1" as="geometry">
            <mxPoint x="1200" y="760" as="targetPoint" />
            <Array as="points">
              <mxPoint x="1200" y="640" />
              <mxPoint x="1200" y="760" />
            </Array>
          </mxGeometry>
        </mxCell>
        <mxCell id="c3LXQ4Qde72yaz5A5wlV-23" value="for (int i = 0; i &amp;lt; s.size(); i ++){" style="shape=hexagon;perimeter=hexagonPerimeter2;whiteSpace=wrap;html=1;fixedSize=1;strokeColor=default;align=center;verticalAlign=middle;fontFamily=Times New Roman;fontSize=24;fontColor=default;fillColor=default;" vertex="1" parent="1">
          <mxGeometry x="195" y="600" width="330" height="80" as="geometry" />
        </mxCell>
        <mxCell id="c3LXQ4Qde72yaz5A5wlV-27" style="edgeStyle=orthogonalEdgeStyle;rounded=0;orthogonalLoop=1;jettySize=auto;html=1;exitX=0.5;exitY=1;exitDx=0;exitDy=0;fontFamily=Times New Roman;fontSize=24;fontColor=default;entryX=0.5;entryY=0;entryDx=0;entryDy=0;" edge="1" parent="1" source="c3LXQ4Qde72yaz5A5wlV-25" target="c3LXQ4Qde72yaz5A5wlV-29">
          <mxGeometry relative="1" as="geometry">
            <mxPoint x="358" y="920" as="targetPoint" />
            <Array as="points" />
          </mxGeometry>
        </mxCell>
        <mxCell id="c3LXQ4Qde72yaz5A5wlV-37" style="edgeStyle=orthogonalEdgeStyle;rounded=0;orthogonalLoop=1;jettySize=auto;html=1;exitX=0;exitY=0.5;exitDx=0;exitDy=0;fontFamily=Times New Roman;fontSize=24;fontColor=default;endArrow=none;endFill=0;startArrow=classic;startFill=1;" edge="1" parent="1" source="c3LXQ4Qde72yaz5A5wlV-25">
          <mxGeometry relative="1" as="geometry">
            <mxPoint x="360" y="1200" as="targetPoint" />
            <Array as="points">
              <mxPoint x="-80" y="800" />
              <mxPoint x="-80" y="1320" />
              <mxPoint x="360" y="1320" />
            </Array>
          </mxGeometry>
        </mxCell>
        <mxCell id="c3LXQ4Qde72yaz5A5wlV-38" style="edgeStyle=orthogonalEdgeStyle;rounded=0;orthogonalLoop=1;jettySize=auto;html=1;exitX=1;exitY=0.5;exitDx=0;exitDy=0;entryX=0;entryY=0.5;entryDx=0;entryDy=0;fontFamily=Times New Roman;fontSize=24;fontColor=default;" edge="1" parent="1" source="c3LXQ4Qde72yaz5A5wlV-25" target="c3LXQ4Qde72yaz5A5wlV-23">
          <mxGeometry relative="1" as="geometry">
            <Array as="points">
              <mxPoint x="760" y="800" />
              <mxPoint x="760" y="1400" />
              <mxPoint x="-160" y="1400" />
              <mxPoint x="-160" y="640" />
            </Array>
          </mxGeometry>
        </mxCell>
        <mxCell id="c3LXQ4Qde72yaz5A5wlV-25" value="for (int j = i + 1; j &amp;lt; s.size(); j ++){" style="shape=hexagon;perimeter=hexagonPerimeter2;whiteSpace=wrap;html=1;fixedSize=1;strokeColor=default;align=center;verticalAlign=middle;fontFamily=Times New Roman;fontSize=24;fontColor=default;fillColor=default;" vertex="1" parent="1">
          <mxGeometry x="182.5" y="760" width="355" height="80" as="geometry" />
        </mxCell>
        <mxCell id="c3LXQ4Qde72yaz5A5wlV-26" value="True" style="text;html=1;align=center;verticalAlign=middle;resizable=0;points=[];autosize=1;strokeColor=none;fillColor=none;fontSize=24;fontFamily=Times New Roman;fontColor=default;" vertex="1" parent="1">
          <mxGeometry x="360" y="703" width="70" height="40" as="geometry" />
        </mxCell>
        <mxCell id="c3LXQ4Qde72yaz5A5wlV-28" value="True" style="text;html=1;align=center;verticalAlign=middle;resizable=0;points=[];autosize=1;strokeColor=none;fillColor=none;fontSize=24;fontFamily=Times New Roman;fontColor=default;" vertex="1" parent="1">
          <mxGeometry x="360" y="860" width="70" height="40" as="geometry" />
        </mxCell>
        <mxCell id="c3LXQ4Qde72yaz5A5wlV-31" style="edgeStyle=orthogonalEdgeStyle;rounded=0;orthogonalLoop=1;jettySize=auto;html=1;exitX=0;exitY=0.5;exitDx=0;exitDy=0;fontFamily=Times New Roman;fontSize=24;fontColor=default;" edge="1" parent="1" source="c3LXQ4Qde72yaz5A5wlV-29">
          <mxGeometry relative="1" as="geometry">
            <mxPoint x="40" y="1080" as="targetPoint" />
            <Array as="points">
              <mxPoint x="40" y="1015" />
              <mxPoint x="40" y="1080" />
            </Array>
          </mxGeometry>
        </mxCell>
        <mxCell id="c3LXQ4Qde72yaz5A5wlV-35" style="edgeStyle=orthogonalEdgeStyle;rounded=0;orthogonalLoop=1;jettySize=auto;html=1;exitX=1;exitY=0.5;exitDx=0;exitDy=0;entryX=0.5;entryY=1;entryDx=0;entryDy=0;fontFamily=Times New Roman;fontSize=24;fontColor=default;endArrow=none;endFill=0;" edge="1" parent="1" source="c3LXQ4Qde72yaz5A5wlV-29" target="c3LXQ4Qde72yaz5A5wlV-34">
          <mxGeometry relative="1" as="geometry">
            <Array as="points">
              <mxPoint x="680" y="1015" />
              <mxPoint x="680" y="1200" />
              <mxPoint x="40" y="1200" />
            </Array>
          </mxGeometry>
        </mxCell>
        <mxCell id="c3LXQ4Qde72yaz5A5wlV-29" value="if (s[i] == s[j] &amp;amp;&amp;amp; s[i] != &#39; &#39;){" style="rhombus;whiteSpace=wrap;html=1;strokeColor=default;align=center;verticalAlign=middle;fontFamily=Times New Roman;fontSize=24;fontColor=default;fillColor=default;" vertex="1" parent="1">
          <mxGeometry x="175" y="920" width="370" height="190" as="geometry" />
        </mxCell>
        <mxCell id="c3LXQ4Qde72yaz5A5wlV-32" value="True" style="text;html=1;align=center;verticalAlign=middle;resizable=0;points=[];autosize=1;strokeColor=none;fillColor=none;fontSize=24;fontFamily=Times New Roman;fontColor=default;" vertex="1" parent="1">
          <mxGeometry x="80" y="970" width="70" height="40" as="geometry" />
        </mxCell>
        <mxCell id="c3LXQ4Qde72yaz5A5wlV-33" value="False" style="text;html=1;align=center;verticalAlign=middle;resizable=0;points=[];autosize=1;strokeColor=none;fillColor=none;fontSize=24;fontFamily=Times New Roman;fontColor=default;" vertex="1" parent="1">
          <mxGeometry x="575" y="970" width="70" height="40" as="geometry" />
        </mxCell>
        <mxCell id="c3LXQ4Qde72yaz5A5wlV-34" value="s[j] = &#39; &#39;;&lt;br&gt;count ++;" style="whiteSpace=wrap;html=1;strokeColor=default;align=center;verticalAlign=middle;fontFamily=Times New Roman;fontSize=24;fontColor=default;fillColor=default;" vertex="1" parent="1">
          <mxGeometry x="-20" y="1080" width="120" height="60" as="geometry" />
        </mxCell>
        <mxCell id="c3LXQ4Qde72yaz5A5wlV-39" value="False" style="text;html=1;align=center;verticalAlign=middle;resizable=0;points=[];autosize=1;strokeColor=none;fillColor=none;fontSize=24;fontFamily=Times New Roman;fontColor=default;" vertex="1" parent="1">
          <mxGeometry x="620" y="760" width="70" height="40" as="geometry" />
        </mxCell>
        <mxCell id="c3LXQ4Qde72yaz5A5wlV-41" value="False" style="text;html=1;align=center;verticalAlign=middle;resizable=0;points=[];autosize=1;strokeColor=none;fillColor=none;fontSize=24;fontFamily=Times New Roman;fontColor=default;" vertex="1" parent="1">
          <mxGeometry x="620" y="600" width="70" height="40" as="geometry" />
        </mxCell>
        <mxCell id="c3LXQ4Qde72yaz5A5wlV-43" style="edgeStyle=orthogonalEdgeStyle;rounded=0;orthogonalLoop=1;jettySize=auto;html=1;exitX=0;exitY=0.5;exitDx=0;exitDy=0;fontFamily=Times New Roman;fontSize=24;fontColor=default;" edge="1" parent="1" source="c3LXQ4Qde72yaz5A5wlV-42">
          <mxGeometry relative="1" as="geometry">
            <mxPoint x="919.9999999999995" y="960" as="targetPoint" />
            <Array as="points">
              <mxPoint x="920" y="865" />
            </Array>
          </mxGeometry>
        </mxCell>
        <mxCell id="c3LXQ4Qde72yaz5A5wlV-50" style="edgeStyle=orthogonalEdgeStyle;rounded=0;orthogonalLoop=1;jettySize=auto;html=1;exitX=1;exitY=0.5;exitDx=0;exitDy=0;entryX=0.5;entryY=1;entryDx=0;entryDy=0;fontFamily=Times New Roman;fontSize=24;fontColor=default;" edge="1" parent="1" source="c3LXQ4Qde72yaz5A5wlV-42" target="c3LXQ4Qde72yaz5A5wlV-49">
          <mxGeometry relative="1" as="geometry">
            <Array as="points">
              <mxPoint x="1520" y="865" />
              <mxPoint x="1520" y="1200" />
              <mxPoint x="920" y="1200" />
            </Array>
          </mxGeometry>
        </mxCell>
        <mxCell id="c3LXQ4Qde72yaz5A5wlV-42" value="if (s[i] != &#39;_&#39; &amp;amp;&amp;amp; s[i] != &#39; &#39;)" style="rhombus;whiteSpace=wrap;html=1;strokeColor=default;align=center;verticalAlign=middle;fontFamily=Times New Roman;fontSize=24;fontColor=default;fillColor=default;" vertex="1" parent="1">
          <mxGeometry x="1030" y="760" width="340" height="210" as="geometry" />
        </mxCell>
        <mxCell id="c3LXQ4Qde72yaz5A5wlV-44" value="True" style="text;html=1;align=center;verticalAlign=middle;resizable=0;points=[];autosize=1;strokeColor=none;fillColor=none;fontSize=24;fontFamily=Times New Roman;fontColor=default;" vertex="1" parent="1">
          <mxGeometry x="940" y="823" width="70" height="40" as="geometry" />
        </mxCell>
        <mxCell id="c3LXQ4Qde72yaz5A5wlV-47" value="False" style="text;html=1;align=center;verticalAlign=middle;resizable=0;points=[];autosize=1;strokeColor=none;fillColor=none;fontSize=24;fontFamily=Times New Roman;fontColor=default;" vertex="1" parent="1">
          <mxGeometry x="1390" y="820" width="70" height="40" as="geometry" />
        </mxCell>
        <mxCell id="c3LXQ4Qde72yaz5A5wlV-49" value="a.push_back(s[i]); a.push_back(count);&lt;br&gt;count = 1;&lt;br&gt;s[i] = &#39; &#39;;" style="whiteSpace=wrap;html=1;strokeColor=default;align=center;verticalAlign=middle;fontFamily=Times New Roman;fontSize=24;fontColor=default;fillColor=default;" vertex="1" parent="1">
          <mxGeometry x="780" y="960" width="280" height="140" as="geometry" />
        </mxCell>
        <mxCell id="c3LXQ4Qde72yaz5A5wlV-51" value="" style="endArrow=classic;html=1;rounded=0;fontFamily=Times New Roman;fontSize=24;fontColor=default;" edge="1" parent="1">
          <mxGeometry width="50" height="50" relative="1" as="geometry">
            <mxPoint x="1200" y="1200" as="sourcePoint" />
            <mxPoint x="1200" y="1280" as="targetPoint" />
          </mxGeometry>
        </mxCell>
        <mxCell id="c3LXQ4Qde72yaz5A5wlV-54" style="edgeStyle=orthogonalEdgeStyle;rounded=0;orthogonalLoop=1;jettySize=auto;html=1;exitX=0.5;exitY=1;exitDx=0;exitDy=0;fontFamily=Times New Roman;fontSize=24;fontColor=default;" edge="1" parent="1" source="c3LXQ4Qde72yaz5A5wlV-52">
          <mxGeometry relative="1" as="geometry">
            <mxPoint x="1199.3333333333335" y="1440" as="targetPoint" />
          </mxGeometry>
        </mxCell>
        <mxCell id="c3LXQ4Qde72yaz5A5wlV-64" style="edgeStyle=orthogonalEdgeStyle;rounded=0;orthogonalLoop=1;jettySize=auto;html=1;exitX=1;exitY=0.5;exitDx=0;exitDy=0;fontFamily=Times New Roman;fontSize=24;fontColor=default;" edge="1" parent="1" source="c3LXQ4Qde72yaz5A5wlV-52">
          <mxGeometry relative="1" as="geometry">
            <mxPoint x="1560" y="1440" as="targetPoint" />
          </mxGeometry>
        </mxCell>
        <mxCell id="c3LXQ4Qde72yaz5A5wlV-52" value="for (int i = 0; i &amp;lt; a.size(); i += 2){" style="shape=hexagon;perimeter=hexagonPerimeter2;whiteSpace=wrap;html=1;fixedSize=1;strokeColor=default;align=center;verticalAlign=middle;fontFamily=Times New Roman;fontSize=24;fontColor=default;fillColor=default;" vertex="1" parent="1">
          <mxGeometry x="1022.5" y="1280" width="355" height="80" as="geometry" />
        </mxCell>
        <mxCell id="c3LXQ4Qde72yaz5A5wlV-55" value="True" style="text;html=1;align=center;verticalAlign=middle;resizable=0;points=[];autosize=1;strokeColor=none;fillColor=none;fontSize=24;fontFamily=Times New Roman;fontColor=default;" vertex="1" parent="1">
          <mxGeometry x="1200" y="1380" width="70" height="40" as="geometry" />
        </mxCell>
        <mxCell id="c3LXQ4Qde72yaz5A5wlV-56" value="}" style="text;html=1;align=center;verticalAlign=middle;resizable=0;points=[];autosize=1;strokeColor=none;fillColor=none;fontSize=24;fontFamily=Times New Roman;fontColor=default;" vertex="1" parent="1">
          <mxGeometry x="340" y="1153" width="40" height="40" as="geometry" />
        </mxCell>
        <mxCell id="c3LXQ4Qde72yaz5A5wlV-57" value="}" style="text;html=1;align=center;verticalAlign=middle;resizable=0;points=[];autosize=1;strokeColor=none;fillColor=none;fontSize=24;fontFamily=Times New Roman;fontColor=default;" vertex="1" parent="1">
          <mxGeometry x="760" y="800" width="40" height="40" as="geometry" />
        </mxCell>
        <mxCell id="c3LXQ4Qde72yaz5A5wlV-58" value="}" style="text;html=1;align=center;verticalAlign=middle;resizable=0;points=[];autosize=1;strokeColor=none;fillColor=none;fontSize=24;fontFamily=Times New Roman;fontColor=default;" vertex="1" parent="1">
          <mxGeometry x="1201" y="710" width="40" height="40" as="geometry" />
        </mxCell>
        <mxCell id="c3LXQ4Qde72yaz5A5wlV-60" value="}" style="text;html=1;align=center;verticalAlign=middle;resizable=0;points=[];autosize=1;strokeColor=none;fillColor=none;fontSize=24;fontFamily=Times New Roman;fontColor=default;" vertex="1" parent="1">
          <mxGeometry x="1180" y="1150" width="40" height="40" as="geometry" />
        </mxCell>
        <mxCell id="c3LXQ4Qde72yaz5A5wlV-63" style="edgeStyle=orthogonalEdgeStyle;rounded=0;orthogonalLoop=1;jettySize=auto;html=1;exitX=0.5;exitY=1;exitDx=0;exitDy=0;entryX=0;entryY=0.5;entryDx=0;entryDy=0;fontFamily=Times New Roman;fontSize=24;fontColor=default;" edge="1" parent="1" source="c3LXQ4Qde72yaz5A5wlV-62" target="c3LXQ4Qde72yaz5A5wlV-52">
          <mxGeometry relative="1" as="geometry">
            <Array as="points">
              <mxPoint x="1200" y="1600" />
              <mxPoint x="920" y="1600" />
              <mxPoint x="920" y="1320" />
            </Array>
          </mxGeometry>
        </mxCell>
        <mxCell id="c3LXQ4Qde72yaz5A5wlV-62" value="std::cout &amp;lt;&amp;lt; char(a[i]) &amp;lt;&amp;lt; a[i + 1];" style="shape=parallelogram;perimeter=parallelogramPerimeter;whiteSpace=wrap;html=1;fixedSize=1;strokeColor=default;align=center;verticalAlign=middle;fontFamily=Times New Roman;fontSize=24;fontColor=default;fillColor=default;" vertex="1" parent="1">
          <mxGeometry x="1000" y="1440" width="400" height="60" as="geometry" />
        </mxCell>
        <mxCell id="c3LXQ4Qde72yaz5A5wlV-66" value="конец" style="ellipse;whiteSpace=wrap;html=1;strokeColor=default;align=center;verticalAlign=middle;fontFamily=Times New Roman;fontSize=24;fontColor=default;fillColor=default;" vertex="1" parent="1">
          <mxGeometry x="1500" y="1440" width="120" height="80" as="geometry" />
        </mxCell>
        <mxCell id="c3LXQ4Qde72yaz5A5wlV-67" value="}" style="text;html=1;align=center;verticalAlign=middle;resizable=0;points=[];autosize=1;strokeColor=none;fillColor=none;fontSize=24;fontFamily=Times New Roman;fontColor=default;" vertex="1" parent="1">
          <mxGeometry x="1614" y="1460" width="40" height="40" as="geometry" />
        </mxCell>
        <mxCell id="c3LXQ4Qde72yaz5A5wlV-68" value="}" style="text;html=1;align=center;verticalAlign=middle;resizable=0;points=[];autosize=1;strokeColor=none;fillColor=none;fontSize=24;fontFamily=Times New Roman;fontColor=default;" vertex="1" parent="1">
          <mxGeometry x="1560" y="1380" width="40" height="40" as="geometry" />
        </mxCell>
      </root>
    </mxGraphModel>
  </diagram>
</mxfile>
